<mxfile host="app.diagrams.net" modified="2024-01-22T14:33:03.006Z" agent="Mozilla/5.0 (Windows NT 10.0; Win64; x64) AppleWebKit/537.36 (KHTML, like Gecko) Chrome/120.0.0.0 Safari/537.36" version="22.1.21" etag="s-lZlyGA4epHO_oyK7V-" type="device">
  <diagram id="VPG4N3jTr20-kdlMtwRp" name="Page-1">
    <mxGraphModel dx="2284" dy="780" grid="1" gridSize="10" guides="1" tooltips="1" connect="1" arrows="1" fold="1" page="1" pageScale="1" pageWidth="850" pageHeight="1100" math="0" shadow="0">
      <root>
        <mxCell id="0" />
        <mxCell id="1" parent="0" />
        <mxCell id="9F6K2tuQzb1r7kIBzYtl-1" value="" style="rounded=0;whiteSpace=wrap;html=1;" vertex="1" parent="1">
          <mxGeometry x="-50" y="60" width="820" height="480" as="geometry" />
        </mxCell>
        <mxCell id="9F6K2tuQzb1r7kIBzYtl-2" value="Vertical Container" style="swimlane;whiteSpace=wrap;html=1;" vertex="1" parent="1">
          <mxGeometry x="-10" y="300" width="740" height="200" as="geometry" />
        </mxCell>
        <mxCell id="9F6K2tuQzb1r7kIBzYtl-3" value="" style="rounded=0;whiteSpace=wrap;html=1;" vertex="1" parent="1">
          <mxGeometry x="60" y="100" width="120" height="30" as="geometry" />
        </mxCell>
        <mxCell id="9F6K2tuQzb1r7kIBzYtl-4" value="" style="rounded=0;whiteSpace=wrap;html=1;" vertex="1" parent="1">
          <mxGeometry x="290" y="100" width="180" height="30" as="geometry" />
        </mxCell>
        <mxCell id="9F6K2tuQzb1r7kIBzYtl-5" value="order id" style="text;html=1;strokeColor=none;fillColor=none;align=center;verticalAlign=middle;whiteSpace=wrap;rounded=0;" vertex="1" parent="1">
          <mxGeometry x="-20" y="100" width="60" height="30" as="geometry" />
        </mxCell>
        <mxCell id="9F6K2tuQzb1r7kIBzYtl-6" value="client id" style="text;html=1;strokeColor=none;fillColor=none;align=center;verticalAlign=middle;whiteSpace=wrap;rounded=0;" vertex="1" parent="1">
          <mxGeometry x="210" y="100" width="60" height="30" as="geometry" />
        </mxCell>
        <mxCell id="9F6K2tuQzb1r7kIBzYtl-8" value="status" style="text;html=1;strokeColor=none;fillColor=none;align=center;verticalAlign=middle;whiteSpace=wrap;rounded=0;" vertex="1" parent="1">
          <mxGeometry x="490" y="100" width="60" height="30" as="geometry" />
        </mxCell>
        <mxCell id="9F6K2tuQzb1r7kIBzYtl-9" value="Small select" style="html=1;shadow=0;dashed=0;shape=mxgraph.bootstrap.rrect;rSize=5;strokeColor=#505050;strokeWidth=1;fillColor=#ffffff;fontColor=#777777;whiteSpace=wrap;align=left;verticalAlign=middle;fontStyle=0;fontSize=12;spacing=15;" vertex="1" parent="1">
          <mxGeometry x="560" y="100" width="160" height="30" as="geometry" />
        </mxCell>
        <mxCell id="9F6K2tuQzb1r7kIBzYtl-10" value="" style="shape=triangle;direction=south;fillColor=#495057;strokeColor=none;perimeter=none;" vertex="1" parent="9F6K2tuQzb1r7kIBzYtl-9">
          <mxGeometry x="1" y="0.5" width="10" height="5" relative="1" as="geometry">
            <mxPoint x="-17" y="-2.5" as="offset" />
          </mxGeometry>
        </mxCell>
        <mxCell id="9F6K2tuQzb1r7kIBzYtl-11" value="search" style="rounded=1;html=1;shadow=0;dashed=0;whiteSpace=wrap;fontSize=10;fillColor=#E6E6E6;align=center;strokeColor=#E6E6E6;fontColor=#333333;" vertex="1" parent="1">
          <mxGeometry x="615" y="190" width="105.5" height="16.88" as="geometry" />
        </mxCell>
      </root>
    </mxGraphModel>
  </diagram>
</mxfile>
